<svg id="SvgjsSvg1001" width="288" height="288" xmlns="http://www.w3.org/2000/svg" version="1.1" xmlns:xlink="http://www.w3.org/1999/xlink" xmlns:svgjs="http://svgjs.com/svgjs"><defs id="SvgjsDefs1002"></defs><g id="SvgjsG1008" transform="matrix(1,0,0,1,0,0)"><svg xmlns="http://www.w3.org/2000/svg" width="288" height="288" viewBox="0 0 24 24"><g fill="none" fill-rule="evenodd"><polygon fill="none" points="0 24 24 24 24 0 0 0"></polygon><path fill="#6666ff" d="M7.84457143 16.987013C7.63137662 16.987013 7.41818182 16.905974 7.2561039 16.7438961 6.93194805 16.4184935 6.93194805 15.8923636 7.2561039 15.5682078L15.5682078 7.2561039C15.8923636 6.93194805 16.4184935 6.93194805 16.7438961 7.2561039 17.0680519 7.58150649 17.0680519 8.10763636 16.7438961 8.43179221L8.43179221 16.7438961C8.26971429 16.905974 8.05651948 16.987013 7.84457143 16.987013M8.67490909 10.238213C7.8134026 10.238213 7.11148052 9.53753766 7.11148052 8.67478442 7.11148052 7.81327792 7.8134026 7.11135584 8.67490909 7.11135584 9.53766234 7.11135584 10.2395844 7.81327792 10.2395844 8.67478442 10.2395844 9.53753766 9.53766234 10.238213 8.67490909 10.238213M15.3250909 16.8883948C14.4623377 16.8883948 13.7604156 16.1877195 13.7604156 15.3249662 13.7604156 14.4634597 14.4623377 13.7615377 15.3250909 13.7615377 16.1865974 13.7615377 16.8885195 14.4634597 16.8885195 15.3249662 16.8885195 16.1877195 16.1865974 16.8883948 15.3250909 16.8883948" class="color757575 svgShape"></path><path fill="#6666ff" d="M7.46717922,19.0190961 C7.79382857,19.0190961 8.0942961,19.2110961 8.2276987,19.5140571 C8.89595844,21.0326026 10.3421922,21.9739013 12.000374,21.9739013 C13.6585558,21.9739013 15.1035429,21.0326026 15.7718026,19.5140571 C15.916426,19.1836675 16.2580364,18.9879273 16.6220883,19.0240831 C18.2690494,19.1936416 19.8087896,18.4219013 20.6378805,16.9868883 C21.4669714,15.5506286 21.3734649,13.8276156 20.3947636,12.4910961 C20.1803221,12.1981091 20.1803221,11.8016416 20.3947636,11.5099013 C21.3734649,10.1721351 21.4669714,8.44912208 20.6378805,7.01286234 C19.8087896,5.58034286 18.2790234,4.80610909 16.6220883,4.97566753 C16.2567896,5.01182338 15.916426,4.81483636 15.7718026,4.48569351 C15.1035429,2.96714805 13.6585558,2.02584935 12.000374,2.02584935 C10.3421922,2.02584935 8.89595844,2.96714805 8.2276987,4.48569351 C8.08182857,4.81483636 7.74520519,5.01307013 7.37865974,4.97566753 C5.72671169,4.80610909 4.18946494,5.58034286 3.36162078,7.01286234 C2.53377662,8.44912208 2.62603636,10.1721351 3.60473766,11.5099013 C3.81917922,11.8016416 3.81917922,12.1981091 3.60473766,12.4910961 C2.62603636,13.8276156 2.53377662,15.5506286 3.36162078,16.9868883 C4.19071169,18.4219013 5.72047792,19.1948883 7.37865974,19.0240831 C7.40858182,19.0215896 7.4385039,19.0190961 7.46717922,19.0190961 M12.000374,23.6358234 C9.87216623,23.6358234 7.99330909,22.5299532 6.97097143,20.712187 L6.90614026,20.712187 C4.84401039,20.712187 2.97388052,19.641226 1.92286753,17.8159792 C0.85814026,15.9745247 0.878088312,13.7964468 1.93907532,11.9998753 C0.878088312,10.2045506 0.85814026,8.02647273 1.92286753,6.18377143 C2.9851013,4.33982338 4.88889351,3.19405714 6.97097143,3.28756364 C7.99330909,1.4697974 9.87216623,0.363927273 12.000374,0.363927273 C14.1285818,0.363927273 16.007439,1.4697974 17.0297766,3.28756364 L17.0946078,3.28756364 C19.1554909,3.28756364 21.0256208,4.35852468 22.0778805,6.18377143 C23.141361,8.02647273 23.1226597,10.2045506 22.060426,11.9998753 C23.1226597,13.7964468 23.141361,15.9745247 22.0778805,17.8159792 C21.0256208,19.641226 19.1554909,20.712187 17.0946078,20.712187 L17.0297766,20.712187 C16.007439,22.5299532 14.1285818,23.6358234 12.000374,23.6358234" class="color757575 svgShape"></path></g></svg></g></svg>